<?xml version="1.0" encoding="UTF-8"?>
<svg xmlns="http://www.w3.org/2000/svg" id="Layer_1" data-name="Layer 1" viewBox="0 0 760.54 584.43">
  <defs>
    <style>
      .cls-1 {
        fill: none;
        stroke: #fff;
        stroke-miterlimit: 10;
        stroke-width: .75px;
      }
    </style>
  </defs>
  <line class="cls-1" x1="601.82" y1="72.49" x2="601.82" y2="82.66"></line>
  <line class="cls-1" x1=".38" y1="184.06" x2=".38" y2="346.08"></line>
  <path class="cls-1" d="m285.1,340.22c-11.74,2.83-24.82,14.45-32.7,26.56-5.06,7.46-9.63,17.03-12.07,26.59-2.44,9.56-2.75,19.12-.76,26.12"></path>
  <line class="cls-1" x1="397.8" y1="61.1" x2="383.34" y2="50.5"></line>
  <line class="cls-1" x1="411.4" y1="275" x2="423.43" y2="281.95"></line>
  <line class="cls-1" x1="680.99" y1="200.36" x2="680.99" y2="371.63"></line>
  <path class="cls-1" d="m187.63,235.06c-2.04-3.03-3.26-5.66-3.29-7.49-.03-1.83,1.13-2.86,3.45-2.88,4.65-.04,13.97,3.98,23.69,9.65,10.37,5.88,25.55,16.4,38.88,27.3,13.33,10.9,24.8,22.18,30.09,29.1,1.24,1.58,2.34,3.11,3.25,4.53"></path>
  <line class="cls-1" x1="670.05" y1="271.71" x2="671.24" y2="272.16"></line>
  <line class="cls-1" x1="388.93" y1="553.35" x2="373.37" y2="567.03"></line>
  <line class="cls-1" x1="760.17" y1="337.5" x2="760.17" y2="181.15"></line>
  <line class="cls-1" x1="265.26" y1="475.76" x2="244.68" y2="484.72"></line>
  <line class="cls-1" x1="393.53" y1="85.82" x2="396.57" y2="68.32"></line>
  <line class="cls-1" x1="477.81" y1="77.1" x2="423.43" y2="38.91"></line>
  <line class="cls-1" x1="198.71" y1="136.52" x2="197.52" y2="135.45"></line>
  <line class="cls-1" x1="742.95" y1="335.86" x2="750.15" y2="331.71"></line>
  <line class="cls-1" x1="385.86" y1="62.14" x2="230.22" y2="110.46"></line>
  <line class="cls-1" x1="537.8" y1="511.89" x2="522.24" y2="505.99"></line>
  <path class="cls-1" d="m391.05,168.46c-6.35-.42-14.22,2.35-21.56,7.45-7.34,5.1-14.16,12.54-19.12,20.01-8.73,12.54-15.4,31.6-14,45.73"></path>
  <line class="cls-1" x1="443.47" y1="302.78" x2="443.47" y2="261.12"></line>
  <line class="cls-1" x1="387.35" y1="18.1" x2="387.35" y2="22.73"></line>
  <line class="cls-1" x1="421.13" y1="583.18" x2="421.13" y2="490.6"></line>
  <line class="cls-1" x1="453.49" y1="10" x2="453.49" y2="30.83"></line>
  <line class="cls-1" x1="680.99" y1="371.63" x2="690.12" y2="366.37"></line>
  <line class="cls-1" x1="621.86" y1="84.51" x2="621.86" y2="95.12"></line>
  <line class="cls-1" x1="690.12" y1="366.37" x2="700.04" y2="372.09"></line>
  <line class="cls-1" x1="700.04" y1="215.87" x2="685.92" y2="205.49"></line>
  <line class="cls-1" x1="511.62" y1="309.72" x2="519.64" y2="314.35"></line>
  <line class="cls-1" x1="750.15" y1="331.71" x2="760.17" y2="337.5"></line>
  <line class="cls-1" x1="760.17" y1="181.15" x2="760.17" y2="163.91"></line>
  <line class="cls-1" x1="720.08" y1="349.07" x2="730.11" y2="343.28"></line>
  <line class="cls-1" x1="511.63" y1="309.72" x2="499.6" y2="316.66"></line>
  <line class="cls-1" x1="541.69" y1="45.26" x2="541.69" y2="37.77"></line>
  <line class="cls-1" x1="214.3" y1="103.23" x2="200.76" y2="92.95"></line>
  <line class="cls-1" x1="413.41" y1="7.68" x2="413.41" y2="10"></line>
  <line class="cls-1" x1="144.66" y1="142.05" x2="145.94" y2="142.4"></line>
  <line class="cls-1" x1="269.85" y1="10.2" x2="269.85" y2="20.48"></line>
  <line class="cls-1" x1="116.77" y1="338.19" x2="87.78" y2="441.24"></line>
  <path class="cls-1" d="m177.02,252.2c4.37,1.69,9.52,4.3,14.74,7.32,10.37,5.88,25.5,16.47,38.73,27.49,13.23,11.02,24.57,22.48,29.74,29.56,1.91,2.53,3.47,4.94,4.46,7.02"></path>
  <line class="cls-1" x1="499.6" y1="316.66" x2="499.6" y2="244.29"></line>
  <line class="cls-1" x1="519.64" y1="328.24" x2="520.82" y2="327.56"></line>
  <line class="cls-1" x1="64.35" y1="327.37" x2="64.43" y2="327.28"></line>
  <path class="cls-1" d="m209.79,206.76c-5.85-8.76-3.45-13.25,7.36-9.4"></path>
  <line class="cls-1" x1="641.91" y1="95.63" x2="564.04" y2="128.8"></line>
  <line class="cls-1" x1="247.28" y1="20.11" x2="247.28" y2="30.39"></line>
  <line class="cls-1" x1="458.36" y1="35.95" x2="444.24" y2="27.8"></line>
  <line class="cls-1" x1="437.5" y1="479.18" x2="460.01" y2="487.72"></line>
  <line class="cls-1" x1="201.94" y1="447.7" x2="202.97" y2="444.07"></line>
  <path class="cls-1" d="m292.15,282.67c-4.99-4.58-6.75-7.51-3.76-7.05,2.99.46,10.74,4.31,19.17,9.3"></path>
  <line class="cls-1" x1="448.38" y1="150.65" x2="448.4" y2="150.5"></line>
  <line class="cls-1" x1="661.95" y1="190.53" x2="661.95" y2="278.83"></line>
  <line class="cls-1" x1="422.32" y1="491.05" x2="423.5" y2="491.5"></line>
  <line class="cls-1" x1="672.42" y1="272.6" x2="671.24" y2="272.16"></line>
  <line class="cls-1" x1="423.5" y1="584.08" x2="422.32" y2="583.63"></line>
  <line class="cls-1" x1="186.69" y1="129.58" x2="185.5" y2="128.51"></line>
  <line class="cls-1" x1="271.48" y1="157.71" x2="280.82" y2="169.09"></line>
  <line class="cls-1" x1="600.03" y1="457.17" x2="584.47" y2="451.27"></line>
  <line class="cls-1" x1="553.36" y1="498.21" x2="537.8" y2="492.31"></line>
  <line class="cls-1" x1="506.69" y1="539.25" x2="491.13" y2="533.36"></line>
  <line class="cls-1" x1="317.39" y1="138.71" x2="317" y2="140.94"></line>
  <line class="cls-1" x1="577.52" y1="356.06" x2="600.03" y2="364.59"></line>
  <line class="cls-1" x1="530.85" y1="397.1" x2="553.36" y2="405.63"></line>
  <line class="cls-1" x1="484.18" y1="438.14" x2="506.69" y2="446.67"></line>
  <line class="cls-1" x1="400.11" y1="61.65" x2="403.39" y2="59.76"></line>
  <line class="cls-1" x1="109.57" y1="241.65" x2="109.57" y2="235.51"></line>
  <line class="cls-1" x1="403.38" y1="279.63" x2="411.41" y2="275"></line>
  <line class="cls-1" x1="382.3" y1="171.17" x2="380.21" y2="183.79"></line>
  <line class="cls-1" x1="608.84" y1="169.12" x2="590.26" y2="156.07"></line>
  <line class="cls-1" x1="87.53" y1="299.36" x2="89.37" y2="301.01"></line>
  <line class="cls-1" x1="217.44" y1="103.76" x2="215.34" y2="116.37"></line>
  <line class="cls-1" x1="161.6" y1="324.39" x2="151.48" y2="310.95"></line>
  <line class="cls-1" x1="491.57" y1="55.53" x2="485.09" y2="57.83"></line>
  <line class="cls-1" x1="521.75" y1="126.78" x2="621.86" y2="84.51"></line>
  <path class="cls-1" d="m108.12,368.99c-3.6,1.13-6.41,2.77-7.98,4.9-1.56,2.13-1.88,4.73-.83,7.56,2.11,5.66,9.7,12.23,19,17.52,10.26,6.11,27.37,12.84,44.21,16.82,16.84,3.98,33.41,5.21,42.94,3.77,7.48-.92,13.57-3.4,15.68-7.27,2.11-3.87.25-9.13-5.19-14.36"></path>
  <line class="cls-1" x1="109.57" y1="230.95" x2="109.57" y2="223"></line>
  <line class="cls-1" x1="444.05" y1="68.92" x2="287.32" y2="121.36"></line>
  <line class="cls-1" x1="475.57" y1="566.61" x2="460.02" y2="560.72"></line>
  <line class="cls-1" x1="179.58" y1="49.82" x2="179.58" y2="60.1"></line>
  <line class="cls-1" x1="396.57" y1="68.32" x2="240.94" y2="116.65"></line>
  <line class="cls-1" x1="662.26" y1="402.45" x2="646.71" y2="396.55"></line>
  <path class="cls-1" d="m417.25,160.31c-2-11.85-6.92-24.22-13.42-34.17s-14.58-17.47-22.11-21.75c-5.84-3.38-12.44-5.59-19.07-5.74"></path>
  <path class="cls-1" d="m233.1,439.04c-6.61,11.08-10.34,23.17-11.16,32.55-.77,7.63.15,15.5,3.2,21.38s8.21,9.76,14.32,10.54"></path>
  <path class="cls-1" d="m467.5,251.49c8.16,1.65,16.81-.64,23.23-6.23,6.42-5.59,10.6-14.49,12.06-23.37,2.15-10.77.4-26.13-5.41-39.25-5.8-13.13-15.66-24.03-24.63-28.69-2.82-1.57-5.85-2.83-8.98-3.62"></path>
  <path class="cls-1" d="m261.14,90.19c-1.74.35-3.44.88-5.09,1.58"></path>
  <line class="cls-1" x1="330.29" y1="15.54" x2="329.43" y2="14.89"></line>
  <line class="cls-1" x1="742.13" y1="153.49" x2="661.95" y2="190.53"></line>
  <line class="cls-1" x1="103.82" y1="450.5" x2="120.75" y2="448.3"></line>
  <line class="cls-1" x1="710.06" y1="354.85" x2="720.08" y2="360.64"></line>
  <path class="cls-1" d="m543.76,229.95l1.38-.4c8.43-2.34,19.5-10.48,28.1-21.72,8.6-11.25,14.74-25.6,16.41-36.48.96-5.52,1.22-11.26.45-16.47-.78-5.22-2.58-9.92-5.33-13.39s-6.44-5.71-10.51-6.62c-4.07-.9-8.53-.47-12.81.86-6.39,1.92-14.15,6.67-21.29,13.89-7.14,7.22-13.66,16.9-17.74,26.43"></path>
  <line class="cls-1" x1="481.56" y1="14.63" x2="481.56" y2="26.2"></line>
  <line class="cls-1" x1="132.81" y1="347.44" x2="103.82" y2="450.5"></line>
  <line class="cls-1" x1="443.47" y1="27.36" x2="407.39" y2="6.52"></line>
  <line class="cls-1" x1="760.17" y1="181.15" x2="503.6" y2="21.57"></line>
  <line class="cls-1" x1="145.94" y1="142.4" x2="145.94" y2="151.44"></line>
  <line class="cls-1" x1="522.77" y1="127.55" x2="509.96" y2="118.04"></line>
  <line class="cls-1" x1="466.22" y1="23.48" x2="481.56" y2="14.63"></line>
  <line class="cls-1" x1="491.15" y1="32.23" x2="491.58" y2="31.98"></line>
  <line class="cls-1" x1="110.85" y1="223.35" x2="110.85" y2="231.4"></line>
  <line class="cls-1" x1="34.01" y1="364.34" x2="40.08" y2="356.94"></line>
  <line class="cls-1" x1="387.35" y1="22.73" x2="413.41" y2="7.68"></line>
  <line class="cls-1" x1="419.17" y1="50.64" x2="423.43" y2="48.18"></line>
  <line class="cls-1" x1="421.13" y1="490.6" x2="670.05" y2="271.71"></line>
  <line class="cls-1" x1="134.45" y1="69.63" x2="134.45" y2="79.91"></line>
  <line class="cls-1" x1="464.53" y1="145.64" x2="474.12" y2="86.28"></line>
  <line class="cls-1" x1="255.45" y1="148.46" x2="266.31" y2="161.68"></line>
  <line class="cls-1" x1="483.56" y1="27.36" x2="479.44" y2="32.91"></line>
  <line class="cls-1" x1="503.6" y1="21.57" x2="491.58" y2="31.98"></line>
  <line class="cls-1" x1="491.58" y1="31.98" x2="491.58" y2="32.51"></line>
  <line class="cls-1" x1="160.64" y1="130.09" x2="161.5" y2="130.74"></line>
  <line class="cls-1" x1="273.48" y1="80.56" x2="274.33" y2="81.22"></line>
  <line class="cls-1" x1="161.5" y1="130.74" x2="161.5" y2="155.7"></line>
  <line class="cls-1" x1="7.11" y1="194.96" x2="8.39" y2="195.31"></line>
  <line class="cls-1" x1="67.82" y1="121.02" x2="69.1" y2="121.37"></line>
  <line class="cls-1" x1="8.39" y1="357.33" x2="14.47" y2="349.92"></line>
  <line class="cls-1" x1="69.1" y1="121.37" x2="69.1" y2="130.42"></line>
  <line class="cls-1" x1="8.39" y1="357.33" x2="7.11" y2="356.98"></line>
  <line class="cls-1" x1="222.01" y1="41.48" x2="222.87" y2="42.13"></line>
  <line class="cls-1" x1="313.13" y1="2.51" x2="312.28" y2="1.86"></line>
  <line class="cls-1" x1="615.59" y1="443.49" x2="600.03" y2="437.59"></line>
  <line class="cls-1" x1="645.99" y1="264.54" x2="645.99" y2="284.11"></line>
  <line class="cls-1" x1="646.7" y1="416.13" x2="631.15" y2="410.23"></line>
  <line class="cls-1" x1="109.18" y1="91" x2="110.04" y2="91.65"></line>
  <line class="cls-1" x1="222.87" y1="42.13" x2="222.87" y2="55.65"></line>
  <line class="cls-1" x1="110.04" y1="91.65" x2="110.04" y2="141.63"></line>
  <line class="cls-1" x1="677.82" y1="388.77" x2="662.27" y2="382.87"></line>
  <line class="cls-1" x1="622.29" y1="255.56" x2="622.29" y2="275.14"></line>
  <line class="cls-1" x1="143.49" y1="117.06" x2="144.35" y2="117.71"></line>
  <line class="cls-1" x1="144.35" y1="117.71" x2="144.35" y2="142.43"></line>
  <line class="cls-1" x1="257.18" y1="68.19" x2="257.18" y2="81.71"></line>
  <line class="cls-1" x1="32.73" y1="201.97" x2="34.01" y2="202.32"></line>
  <line class="cls-1" x1="93.43" y1="128.03" x2="94.71" y2="128.38"></line>
  <line class="cls-1" x1="94.71" y1="128.38" x2="94.71" y2="137.43"></line>
  <line class="cls-1" x1="34.01" y1="364.34" x2="32.73" y2="363.99"></line>
  <line class="cls-1" x1="224.72" y1="30.01" x2="224.72" y2="40.29"></line>
  <line class="cls-1" x1="522.24" y1="525.57" x2="506.69" y2="519.68"></line>
  <line class="cls-1" x1="256.32" y1="67.54" x2="257.18" y2="68.19"></line>
  <line class="cls-1" x1="347.44" y1="28.57" x2="346.59" y2="27.92"></line>
  <line class="cls-1" x1="584.47" y1="470.85" x2="568.93" y2="464.96"></line>
  <line class="cls-1" x1="568.92" y1="484.53" x2="553.36" y2="478.63"></line>
  <line class="cls-1" x1="489.69" y1="361.92" x2="489.69" y2="342.34"></line>
  <line class="cls-1" x1="48.94" y1="124.91" x2="61.76" y2="128.42"></line>
  <line class="cls-1" x1="643.91" y1="177.8" x2="643.91" y2="266.37"></line>
  <line class="cls-1" x1="740.12" y1="349.07" x2="739.82" y2="214.12"></line>
  <line class="cls-1" x1="157.02" y1="59.72" x2="157.02" y2="70"></line>
  <line class="cls-1" x1="202.15" y1="39.92" x2="210.73" y2="46.43"></line>
  <line class="cls-1" x1="109.18" y1="141.39" x2="109.18" y2="91"></line>
  <line class="cls-1" x1="160.64" y1="155.48" x2="160.64" y2="130.09"></line>
  <line class="cls-1" x1="48.94" y1="143.02" x2="48.94" y2="124.91"></line>
  <line class="cls-1" x1="165.6" y1="66.24" x2="157.02" y2="59.72"></line>
  <line class="cls-1" x1="202.15" y1="50.19" x2="202.15" y2="39.92"></line>
  <path class="cls-1" d="m396.47,60.13c-1.82-2.07-4-3.65-6.39-4.69"></path>
  <line class="cls-1" x1="457.5" y1="301.62" x2="457.5" y2="258.03"></line>
  <line class="cls-1" x1="295.5" y1="274.78" x2="293.46" y2="277.39"></line>
  <path class="cls-1" d="m250.6,113.65c-6.68-5.94-17.08-5.46-26.07-.96-8.65,3.9-19.38,13.68-27.1,25.8-7.73,12.12-12.46,26.59-12.89,36.93l-.08,1.65"></path>
  <line class="cls-1" x1="199.9" y1="92.3" x2="183.61" y2="79.92"></line>
  <line class="cls-1" x1="463.53" y1="65.47" x2="462.02" y2="66"></line>
  <path class="cls-1" d="m307.56,284.91c8.52,4.95,21.36,13.24,32.97,21.44,11.61,8.2,21.98,16.3,27.1,20.99,4.23,3.78,6.91,6.86,6.48,7.86-.43,1-3.96-.06-9.61-2.9"></path>
  <line class="cls-1" x1="431.45" y1="286.58" x2="443.48" y2="293.52"></line>
  <path class="cls-1" d="m274.2,334.3c-1.56.48-3.11,1.08-4.63,1.78-8.63,3.69-19.41,13.24-27.27,25.26-7.86,12.01-12.79,26.48-13.39,36.9-1.08,11.52,2.17,23.26,10.01,28.18"></path>
  <line class="cls-1" x1="303.36" y1="130.61" x2="302.97" y2="132.84"></line>
  <line class="cls-1" x1="641.91" y1="107.59" x2="641.91" y2="95.63"></line>
  <path class="cls-1" d="m257.41,449.63c-7.53,11.7-11.86,25-12.73,35.09-.51,5.35-.27,10.8,1.01,15.61,1.28,4.81,3.59,8.97,6.78,11.83,3.19,2.86,7.24,4.42,11.59,4.66s8.97-.84,13.32-2.74c6.59-2.8,14.4-8.57,21.28-16.61,6.88-8.03,12.85-18.33,16.19-28.02"></path>
  <path class="cls-1" d="m306.58,422.16c-6.05-2.91-13.66-2.09-20.57.97-6.9,2.95-15.01,8.99-22.16,17.64"></path>
  <line class="cls-1" x1="631.15" y1="429.81" x2="615.59" y2="423.91"></line>
  <path class="cls-1" d="m120.23,272.8c-11.74,2.83-24.82,14.45-32.7,26.56-5.06,7.46-9.63,17.03-12.07,26.59-2.44,9.56-2.75,19.11-.76,26.11"></path>
  <path class="cls-1" d="m352.84,99.44c-5.75-9.58-13.32-16.66-20.39-20.53-4.19-2.33-8.84-3.96-13.59-4.44"></path>
  <path class="cls-1" d="m202.88,444.09l-.94,3.61c-3.6,13.54-12.46,30.22-23.8,42.57-5.67,6.17-11.95,11.26-17.94,14.77-5.99,3.51-11.67,5.44-16.62,6.07-4.95.65-9.96.1-14.33-2.07-4.38-2.16-8.12-5.94-10.62-11.06-2.51-5.12-3.78-11.57-3.84-18.44s1.13-14.14,3.05-20.96"></path>
  <path class="cls-1" d="m249.19,471.9c9.6,3.32,21.89,5.2,33.14,5.05s21.47-2.32,28.29-5.37c6.79-2.89,12.4-7.49,14.39-12.89,1.99-5.4.35-11.59-4.46-16.79"></path>
  <line class="cls-1" x1="384.11" y1="72.19" x2="385.86" y2="62.14"></line>
  <path class="cls-1" d="m167.47,260.81c-5.85-8.76-3.46-13.26,7.36-9.4"></path>
  <line class="cls-1" x1="150.41" y1="345.16" x2="132.81" y2="347.44"></line>
  <line class="cls-1" x1="58.34" y1="208.98" x2="59.62" y2="209.33"></line>
  <path class="cls-1" d="m450.8,149.9c-1.74.35-3.45.88-5.09,1.58"></path>
  <line class="cls-1" x1="24.66" y1="154.49" x2="24.66" y2="172.6"></line>
  <path class="cls-1" d="m435.92,119.68c9.81-15.54,23.28-27.13,34.11-31.79,4.96-2.23,10.22-3.6,15.21-3.57s9.73,1.44,13.58,4.29c3.86,2.85,6.84,7.14,8.7,12.27s2.6,11.11,2.43,17.15"></path>
  <line class="cls-1" x1="460.09" y1="78.17" x2="303.36" y2="130.61"></line>
  <line class="cls-1" x1="115.6" y1="179.37" x2="114.32" y2="179.02"></line>
  <line class="cls-1" x1="561.73" y1="49.34" x2="561.73" y2="57.72"></line>
  <line class="cls-1" x1="702.04" y1="144.99" x2="702.04" y2="130.35"></line>
  <line class="cls-1" x1="364.6" y1="41.6" x2="363.74" y2="40.95"></line>
  <line class="cls-1" x1="347.44" y1="42.09" x2="347.44" y2="28.57"></line>
  <line class="cls-1" x1="730.1" y1="343.28" x2="742.95" y2="350.7"></line>
  <line class="cls-1" x1="364.6" y1="55.12" x2="364.6" y2="41.6"></line>
  <path class="cls-1" d="m144.2,279.05c-6.22-2.24-15.03-.67-23.55,4.37-8.52,5.04-16.75,13.56-22.4,22.12-5.06,7.46-9.63,17.03-12.07,26.59-2.44,9.56-2.75,19.12-.76,26.12"></path>
  <line class="cls-1" x1="119.05" y1="135.04" x2="120.33" y2="135.39"></line>
  <line class="cls-1" x1="263.12" y1="372.96" x2="264.95" y2="374.61"></line>
  <line class="cls-1" x1="468.62" y1="451.82" x2="491.13" y2="460.36"></line>
  <line class="cls-1" x1="419.61" y1="77.1" x2="411.19" y2="70.93"></line>
  <line class="cls-1" x1="396.35" y1="444" x2="396.35" y2="424.43"></line>
  <line class="cls-1" x1="543.69" y1="304.08" x2="543.69" y2="229.96"></line>
  <line class="cls-1" x1="519.64" y1="237.47" x2="519.64" y2="328.24"></line>
  <line class="cls-1" x1="520.54" y1="107.1" x2="601.82" y2="72.49"></line>
  <line class="cls-1" x1="621.86" y1="165.07" x2="621.86" y2="255.93"></line>
  <line class="cls-1" x1="720.08" y1="204.41" x2="463.52" y2="21.57"></line>
  <line class="cls-1" x1="102.17" y1="193.81" x2="77.83" y2="187.15"></line>
  <line class="cls-1" x1="430.68" y1="44" x2="440.02" y2="38.61"></line>
  <line class="cls-1" x1="742.13" y1="169.92" x2="742.13" y2="153.49"></line>
  <line class="cls-1" x1="742.95" y1="194.17" x2="724.09" y2="182.04"></line>
  <line class="cls-1" x1="551.92" y1="307.2" x2="551.92" y2="287.62"></line>
  <line class="cls-1" x1="541.54" y1="121.86" x2="505.64" y2="96.65"></line>
  <line class="cls-1" x1="421.13" y1="583.18" x2="422.32" y2="583.63"></line>
  <line class="cls-1" x1="760.17" y1="163.91" x2="680.99" y2="200.36"></line>
  <line class="cls-1" x1="229.46" y1="110.7" x2="227.68" y2="121.4"></line>
  <line class="cls-1" x1="330.75" y1="56.46" x2="330.29" y2="56.11"></line>
  <line class="cls-1" x1="742.95" y1="194.17" x2="742.95" y2="350.7"></line>
  <path class="cls-1" d="m304.06,115.75c-5.81-10.06-13.67-17.52-20.97-21.51-3.46-1.92-7.22-3.37-11.11-4.09"></path>
  <line class="cls-1" x1="538.7" y1="122.61" x2="383.07" y2="170.93"></line>
  <path class="cls-1" d="m112.07,237.93c-5.17-4.7-7.16-7.8-4.24-7.41,2.92.39,10.74,4.26,19.28,9.31,9.69,5.64,24.56,15.3,37.47,24.66"></path>
  <line class="cls-1" x1="245.77" y1="473.39" x2="233.97" y2="478.53"></line>
  <line class="cls-1" x1="536.36" y1="320.88" x2="536.36" y2="301.3"></line>
  <line class="cls-1" x1="567.48" y1="293.52" x2="567.48" y2="273.94"></line>
  <line class="cls-1" x1="373.37" y1="547.45" x2="365.23" y2="544.37"></line>
  <line class="cls-1" x1="397.07" y1="556.43" x2="388.94" y2="553.35"></line>
  <line class="cls-1" x1="363.58" y1="203.93" x2="362.39" y2="202.86"></line>
  <line class="cls-1" x1="443.02" y1="402.96" x2="443.02" y2="383.38"></line>
  <line class="cls-1" x1="300.99" y1="6.81" x2="292.42" y2=".3"></line>
  <line class="cls-1" x1="234.15" y1="37.18" x2="233.29" y2="36.53"></line>
  <line class="cls-1" x1="268.46" y1="63.24" x2="267.6" y2="62.58"></line>
  <line class="cls-1" x1="120.46" y1="86.05" x2="111.89" y2="79.53"></line>
  <line class="cls-1" x1="154.77" y1="112.1" x2="138.48" y2="99.73"></line>
  <line class="cls-1" x1="50.9" y1="143.56" x2="49.62" y2="143.2"></line>
  <line class="cls-1" x1="76.5" y1="150.56" x2="75.23" y2="150.21"></line>
  <line class="cls-1" x1="40.08" y1="356.94" x2="58.34" y2="361.94"></line>
  <line class="cls-1" x1="14.46" y1="349.93" x2="32.73" y2="354.93"></line>
  <line class="cls-1" x1="38.8" y1="194.58" x2="14.47" y2="187.92"></line>
  <line class="cls-1" x1="222.47" y1="82.39" x2="206.17" y2="70.01"></line>
  <line class="cls-1" x1="188.16" y1="56.33" x2="179.58" y2="49.82"></line>
  <line class="cls-1" x1="211.59" y1="47.08" x2="210.73" y2="46.43"></line>
  <line class="cls-1" x1="263.05" y1="86.17" x2="262.19" y2="85.52"></line>
  <line class="cls-1" x1="278.43" y1="16.72" x2="269.85" y2="10.2"></line>
  <line class="cls-1" x1="126.33" y1="146.09" x2="126.33" y2="104.03"></line>
  <line class="cls-1" x1="351.55" y1="196.99" x2="350.36" y2="195.92"></line>
  <line class="cls-1" x1="86.78" y1="343.96" x2="119.97" y2="328.73"></line>
  <line class="cls-1" x1="182.75" y1="79.27" x2="166.46" y2="66.89"></line>
  <line class="cls-1" x1="263.05" y1="86.17" x2="266.25" y2="88.6"></line>
  <line class="cls-1" x1="310.49" y1="95.15" x2="310.4" y2="95.08"></line>
  <line class="cls-1" x1="64.04" y1="330.83" x2="75.58" y2="325.53"></line>
  <line class="cls-1" x1="208.82" y1="423.27" x2="210.1" y2="418.73"></line>
  <line class="cls-1" x1="205.32" y1="69.36" x2="189.02" y2="56.99"></line>
  <line class="cls-1" x1="295.58" y1="29.75" x2="279.28" y2="17.37"></line>
  <line class="cls-1" x1="274.33" y1="81.22" x2="274.33" y2="86.09"></line>
  <line class="cls-1" x1="235.18" y1="465.83" x2="221.94" y2="471.59"></line>
  <line class="cls-1" x1="411.9" y1="430.32" x2="411.9" y2="410.75"></line>
  <line class="cls-1" x1="458.58" y1="389.28" x2="458.58" y2="369.7"></line>
  <line class="cls-1" x1="505.25" y1="348.24" x2="505.25" y2="328.66"></line>
  <line class="cls-1" x1="437.51" y1="571.76" x2="423.5" y2="584.08"></line>
  <line class="cls-1" x1="677.82" y1="359.27" x2="680.99" y2="361.1"></line>
  <line class="cls-1" x1="481.16" y1="78.33" x2="483.55" y2="77.47"></line>
  <line class="cls-1" x1="14.46" y1="187.92" x2="13.18" y2="187.57"></line>
  <line class="cls-1" x1="40.08" y1="194.93" x2="38.8" y2="194.58"></line>
  <line class="cls-1" x1="91.31" y1="208.95" x2="90.04" y2="208.6"></line>
  <line class="cls-1" x1="137" y1="335.57" x2="116.77" y2="338.19"></line>
  <path class="cls-1" d="m310.5,74.86c-1.74.35-3.44.88-5.09,1.58"></path>
  <line class="cls-1" x1="63.03" y1="128.76" x2="61.76" y2="128.42"></line>
  <line class="cls-1" x1="139.88" y1="149.8" x2="138.59" y2="149.44"></line>
  <path class="cls-1" d="m236.36,466.21c2.78,1.61,6.02,3.16,9.65,4.55"></path>
  <path class="cls-1" d="m259.85,330.83c-1.87-.31-4.13-.99-6.66-1.98"></path>
  <line class="cls-1" x1="273.99" y1="302.46" x2="273.87" y2="302.42"></line>
  <line class="cls-1" x1="80.9" y1="405.98" x2="69.1" y2="411.12"></line>
  <path class="cls-1" d="m60.17,389.5c2.55,3.23,6.14,6.16,10.17,8.61"></path>
  <path class="cls-1" d="m84.32,404.49c2.49.84,5.12,1.6,7.87,2.26"></path>
  <line class="cls-1" x1="209.43" y1="142.71" x2="208.24" y2="141.64"></line>
  <line class="cls-1" x1="403.38" y1="274.35" x2="403.38" y2="279.63"></line>
  <path class="cls-1" d="m475.37,142.27c-1.74.35-3.45.88-5.09,1.58"></path>
  <line class="cls-1" x1="536.74" y1="133.89" x2="538.7" y2="122.61"></line>
  <line class="cls-1" x1="608.84" y1="267.39" x2="608.84" y2="169.12"></line>
  <line class="cls-1" x1="405.85" y1="67.01" x2="399.39" y2="62.27"></line>
  <line class="cls-1" x1="59.62" y1="362.79" x2="59.62" y2="369.26"></line>
  <line class="cls-1" x1="98.98" y1="373.37" x2="98.76" y2="373.64"></line>
  <line class="cls-1" x1="483.56" y1="35.85" x2="483.56" y2="27.36"></line>
  <line class="cls-1" x1="579.77" y1="197.99" x2="579.77" y2="278.6"></line>
  <path class="cls-1" d="m109.91,362.59c-3.7,2.92-7.44,6.57-10.93,10.77"></path>
  <line class="cls-1" x1="724.09" y1="158.71" x2="724.09" y2="143.08"></line>
  <line class="cls-1" x1="682" y1="132.53" x2="682" y2="118.78"></line>
  <line class="cls-1" x1="521.64" y1="32.79" x2="521.64" y2="26.2"></line>
  <line class="cls-1" x1="427.46" y1="416.64" x2="427.46" y2="397.07"></line>
  <line class="cls-1" x1="474.13" y1="375.6" x2="474.13" y2="356.02"></line>
  <line class="cls-1" x1="135.55" y1="202.94" x2="129.06" y2="201.17"></line>
  <line class="cls-1" x1="115.64" y1="215.61" x2="91.31" y2="208.95"></line>
  <line class="cls-1" x1="125.29" y1="218.25" x2="116.93" y2="215.96"></line>
  <line class="cls-1" x1="83.96" y1="279.83" x2="83.96" y2="215.99"></line>
  <line class="cls-1" x1="367.75" y1="327.45" x2="380.57" y2="308.36"></line>
  <line class="cls-1" x1="76.56" y1="186.8" x2="52.22" y2="180.14"></line>
  <line class="cls-1" x1="421.13" y1="565.56" x2="412.63" y2="562.33"></line>
  <line class="cls-1" x1="70.32" y1="398.41" x2="57.07" y2="404.18"></line>
  <line class="cls-1" x1="453.01" y1="50.89" x2="444.74" y2="53.87"></line>
  <line class="cls-1" x1="471.53" y1="44.23" x2="468.21" y2="45.42"></line>
  <line class="cls-1" x1="491.57" y1="37.02" x2="487.35" y2="38.54"></line>
  <line class="cls-1" x1="593.08" y1="342.38" x2="615.59" y2="350.91"></line>
  <line class="cls-1" x1="156.08" y1="172.34" x2="153.35" y2="171.59"></line>
  <line class="cls-1" x1="100.84" y1="157.22" x2="76.5" y2="150.56"></line>
  <line class="cls-1" x1="291.52" y1="80.75" x2="285.62" y2="76.26"></line>
  <line class="cls-1" x1="561.96" y1="369.74" x2="584.47" y2="378.27"></line>
  <line class="cls-1" x1="546.41" y1="383.42" x2="568.92" y2="391.95"></line>
  <line class="cls-1" x1="488.22" y1="247.23" x2="497.45" y2="244.36"></line>
  <line class="cls-1" x1="463.41" y1="254.93" x2="472.87" y2="251.99"></line>
  <line class="cls-1" x1="332.98" y1="138.93" x2="333.05" y2="139.02"></line>
  <path class="cls-1" d="m296.64,82.43c-1.14-.21-2.29-.35-3.45-.42"></path>
  <line class="cls-1" x1="453.06" y1="465.5" x2="475.57" y2="474.04"></line>
  <line class="cls-1" x1="88.71" y1="172.01" x2="64.37" y2="165.35"></line>
  <line class="cls-1" x1="316.8" y1="72.9" x2="308.18" y2="66.36"></line>
  <line class="cls-1" x1="342.07" y1="65.05" x2="330.76" y2="56.46"></line>
  <line class="cls-1" x1="608.64" y1="328.7" x2="631.15" y2="337.23"></line>
  <line class="cls-1" x1="233.29" y1="36.53" x2="224.72" y2="30.01"></line>
  <line class="cls-1" x1="287.32" y1="121.36" x2="286.94" y2="123.58"></line>
  <line class="cls-1" x1="206.17" y1="70.01" x2="205.32" y2="69.36"></line>
  <line class="cls-1" x1="292.42" y1=".3" x2="292.42" y2="10.57"></line>
  <line class="cls-1" x1="208.24" y1="141.64" x2="98.25" y2="305.55"></line>
  <line class="cls-1" x1="252.4" y1="366.77" x2="254.23" y2="368.42"></line>
  <line class="cls-1" x1="451.5" y1="298.15" x2="457.5" y2="301.62"></line>
  <path class="cls-1" d="m394.44,275.89c8.65-3.9,19.38-13.68,27.1-25.8,7.73-12.12,12.46-26.59,12.89-36.93.34-5.27-.1-10.6-1.57-15.23-1.47-4.63-3.97-8.58-7.31-11.19-3.34-2.62-7.53-3.91-11.97-3.9-4.43.01-9.11,1.34-13.48,3.45-8.65,3.9-19.38,13.68-27.1,25.8-7.73,12.12-12.46,26.59-12.89,36.93-.34,5.27.1,10.6,1.57,15.23,1.47,4.63,3.97,8.58,7.31,11.19,3.34,2.62,7.53,3.91,11.97,3.9,4.43-.01,9.11-1.34,13.48-3.45Z"></path>
  <path class="cls-1" d="m225.03,456.91c2.55,3.23,6.14,6.16,10.17,8.61"></path>
  <line class="cls-1" x1="365.23" y1="544.37" x2="365.23" y2="451.79"></line>
  <line class="cls-1" x1="284.76" y1="75.61" x2="268.47" y2="63.24"></line>
  <line class="cls-1" x1="441.56" y1="84.38" x2="444.05" y2="68.92"></line>
  <line class="cls-1" x1="221.94" y1="471.59" x2="228.91" y2="398.24"></line>
  <line class="cls-1" x1="83.96" y1="215.99" x2="85.24" y2="216.34"></line>
  <line class="cls-1" x1="460.01" y1="580.3" x2="437.5" y2="571.76"></line>
  <path class="cls-1" d="m106.98,493.88c-4.33-.43-8.46-2-11.92-4.85-3.46-2.85-6.26-6.97-8.01-11.99-3.5-10.05-2.79-23.71.73-35.8,3.89-14.45,13.51-32.39,26.12-44.98"></path>
  <path class="cls-1" d="m161.46,279.23c4.9-2.5,9.54-3.92,13.66-4.45,1.63-.21,3.27-.3,4.89-.24"></path>
  <line class="cls-1" x1="127.19" y1="104.68" x2="127.19" y2="146.32"></line>
  <line class="cls-1" x1="109.57" y1="223" x2="110.85" y2="223.35"></line>
  <path class="cls-1" d="m233.72,205.27c-.01-9.12,2.31-19.82,6.29-29.89,3.98-10.07,9.61-19.52,15.44-26.93,8.21-10.7,19.89-20.52,31.11-24.75,5.61-2.11,11.1-2.83,15.87-2.21,4.77.63,8.8,2.59,11.94,5.43"></path>
  <line class="cls-1" x1="110.85" y1="236.78" x2="110.85" y2="239.75"></line>
  <line class="cls-1" x1="522.37" y1="63.5" x2="561.73" y2="49.34"></line>
  <line class="cls-1" x1="239.17" y1="54.51" x2="240.02" y2="55.16"></line>
  <path class="cls-1" d="m238.2,107.99c-6.35-.41-14.22,2.35-21.56,7.46-7.34,5.1-14.15,12.54-19.11,20-8.18,11.83-14.67,29.36-14.13,43.21"></path>
  <line class="cls-1" x1="251.65" y1="411.37" x2="325.82" y2="377.33"></line>
  <line class="cls-1" x1="325.65" y1="379.09" x2="321.98" y2="417.92"></line>
  <line class="cls-1" x1="244.68" y1="484.72" x2="251.65" y2="411.37"></line>
  <line class="cls-1" x1="126.33" y1="104.03" x2="127.19" y2="104.68"></line>
  <line class="cls-1" x1="491.58" y1="298.15" x2="499.6" y2="302.78"></line>
  <path class="cls-1" d="m117.85,458.6c4.1-15.38,14.87-34.76,28.57-47.36"></path>
  <line class="cls-1" x1="423.43" y1="291.21" x2="423.43" y2="267.34"></line>
  <line class="cls-1" x1="491.58" y1="298.15" x2="479.55" y2="305.09"></line>
  <line class="cls-1" x1="240.93" y1="405.18" x2="250.78" y2="400.66"></line>
  <line class="cls-1" x1="383.34" y1="50.5" x2="383.34" y2="53.89"></line>
  <line class="cls-1" x1="85.24" y1="216.34" x2="85.24" y2="277.92"></line>
  <line class="cls-1" x1="503.6" y1="21.57" x2="503.6" y2="32.69"></line>
  <line class="cls-1" x1="387.35" y1="53.44" x2="387.35" y2="45.87"></line>
  <line class="cls-1" x1="491.13" y1="552.93" x2="475.58" y2="547.04"></line>
  <line class="cls-1" x1="88.66" y1="135.78" x2="87.36" y2="135.42"></line>
  <line class="cls-1" x1="324.44" y1="392.01" x2="349.37" y2="354.85"></line>
  <line class="cls-1" x1="387.35" y1="45.87" x2="387.35" y2="22.73"></line>
  <path class="cls-1" d="m285.94,82.49c-1.74.35-3.44.88-5.09,1.58"></path>
  <path class="cls-1" d="m413.78,181.59c-6.35-.41-14.22,2.35-21.56,7.46-7.34,5.1-14.15,12.54-19.11,20-6.61,9.57-12.19,23.05-13.69,35.06-1.5,12,1.08,22.52,6.06,27.73"></path>
  <line class="cls-1" x1="240.18" y1="116.89" x2="229.42" y2="181.7"></line>
  <line class="cls-1" x1="541.69" y1="37.77" x2="504.67" y2="50.89"></line>
  <line class="cls-1" x1="143.49" y1="143.48" x2="143.49" y2="117.06"></line>
  <path class="cls-1" d="m328.56,107.56c-5.78-9.82-13.49-17.09-20.68-21.01-3.5-1.94-7.31-3.41-11.24-4.11"></path>
  <line class="cls-1" x1="94.54" y1="410.9" x2="79.82" y2="417.31"></line>
  <line class="cls-1" x1="457.9" y1="91.7" x2="460.09" y2="78.17"></line>
  <path class="cls-1" d="m492.2,243.89c8.15,1.61,16.76-.7,23.15-6.3,6.39-5.6,10.55-14.47,12.01-23.32,2.15-10.77.4-26.13-5.41-39.25-5.8-13.13-15.66-24.03-24.63-28.69-2.96-1.65-6.15-2.95-9.44-3.73"></path>
  <line class="cls-1" x1="313.13" y1="16.03" x2="313.13" y2="2.51"></line>
  <line class="cls-1" x1="431.45" y1="286.58" x2="423.43" y2="291.21"></line>
  <line class="cls-1" x1="423.43" y1="38.91" x2="423.43" y2="53.8"></line>
  <path class="cls-1" d="m118.98,274.66l-2.25.95c-8.63,3.69-19.41,13.24-27.27,25.26-7.86,12.01-12.79,26.48-13.39,36.9-.99,10.84,1.76,21.92,8.72,27.24"></path>
  <line class="cls-1" x1="36.8" y1="139.7" x2="36.8" y2="157.8"></line>
  <path class="cls-1" d="m225.35,435.69c-5.23,5.4-6.02,12.65-1.82,19.11"></path>
  <line class="cls-1" x1="12.52" y1="169.27" x2="12.52" y2="187.38"></line>
  <line class="cls-1" x1="380.79" y1="457.69" x2="380.79" y2="438.11"></line>
  <path class="cls-1" d="m308.21,258.74c-4.99-4.58-6.75-7.51-3.76-7.05,2.99.46,10.74,4.31,19.17,9.3"></path>
  <line class="cls-1" x1="422.32" y1="491.05" x2="421.13" y2="490.6"></line>
  <path class="cls-1" d="m121.79,502.98c-8.43-1.04-15.68-7.48-18.92-17.4-3.24-9.92-2.49-23.31.95-35.09,3.93-14.62,13.76-32.84,26.58-45.44"></path>
  <line class="cls-1" x1="443.47" y1="27.24" x2="437.01" y2="48.44"></line>
  <line class="cls-1" x1="374.3" y1="210.12" x2="373.11" y2="209.05"></line>
  <line class="cls-1" x1="443.47" y1="52.99" x2="443.47" y2="27.24"></line>
  <line class="cls-1" x1="120.33" y1="135.39" x2="120.33" y2="144.44"></line>
  <line class="cls-1" x1="700.04" y1="372.09" x2="700.04" y2="215.87"></line>
  <line class="cls-1" x1="59.62" y1="209.33" x2="59.62" y2="346.4"></line>
  <line class="cls-1" x1="702.04" y1="130.35" x2="621.86" y2="165.07"></line>
  <line class="cls-1" x1="479.55" y1="305.09" x2="479.55" y2="251.18"></line>
  <line class="cls-1" x1="680.99" y1="201.87" x2="443.47" y2="27.24"></line>
  <line class="cls-1" x1="69.1" y1="411.12" x2="76.06" y2="337.77"></line>
  <line class="cls-1" x1="449.49" y1="10" x2="449.49" y2="30.82"></line>
  <line class="cls-1" x1="330.29" y1="29.06" x2="330.29" y2="15.54"></line>
  <line class="cls-1" x1="500.65" y1="90.1" x2="581.78" y2="60.91"></line>
  <line class="cls-1" x1="290.54" y1="281.12" x2="281.72" y2="292.39"></line>
  <line class="cls-1" x1="76.06" y1="337.77" x2="85.91" y2="333.25"></line>
  <line class="cls-1" x1="559.73" y1="221.62" x2="559.73" y2="290.58"></line>
  <line class="cls-1" x1="437.44" y1="47.02" x2="387.35" y2="18.1"></line>
  <line class="cls-1" x1="443.87" y1="68.98" x2="403.38" y2="38.93"></line>
  <line class="cls-1" x1="98.25" y1="305.55" x2="100.08" y2="307.2"></line>
  <line class="cls-1" x1="111.89" y1="79.53" x2="111.89" y2="89.81"></line>
  <line class="cls-1" x1="451.49" y1="298.15" x2="443.47" y2="302.78"></line>
  <line class="cls-1" x1="581.78" y1="60.91" x2="581.78" y2="70.18"></line>
  <line class="cls-1" x1="126.33" y1="164.37" x2="126.33" y2="164.2"></line>
  <line class="cls-1" x1="720.08" y1="360.64" x2="720.08" y2="204.41"></line>
  <line class="cls-1" x1="352.54" y1="350.12" x2="364.51" y2="332.29"></line>
  <path class="cls-1" d="m155.13,404.12c7.55-5.3,14.91-8.16,21.07-8.93,6.17-.82,12.43.27,17.46,3.95"></path>
  <path class="cls-1" d="m71.48,398.79c2.79,1.61,6.02,3.16,9.66,4.55"></path>
  <line class="cls-1" x1="471.54" y1="286.57" x2="457.51" y2="294.67"></line>
  <line class="cls-1" x1="403.38" y1="38.93" x2="403.38" y2="63"></line>
  <line class="cls-1" x1="450.63" y1="32.48" x2="461.95" y2="25.94"></line>
  <line class="cls-1" x1="240.02" y1="55.16" x2="240.02" y2="68.68"></line>
  <line class="cls-1" x1="700.04" y1="360.64" x2="710.07" y2="354.85"></line>
  <line class="cls-1" x1="308.19" y1="66.36" x2="307.33" y2="65.71"></line>
  <line class="cls-1" x1="471.53" y1="286.58" x2="479.56" y2="291.21"></line>
  <line class="cls-1" x1="583.04" y1="279.84" x2="583.04" y2="260.26"></line>
  <line class="cls-1" x1="661.95" y1="120.06" x2="661.95" y2="107.2"></line>
  <line class="cls-1" x1="722.71" y1="181.15" x2="483.56" y2="27.36"></line>
  <line class="cls-1" x1="491.58" y1="31.98" x2="453.49" y2="10"></line>
  <line class="cls-1" x1=".38" y1="346.08" x2="7.11" y2="347.92"></line>
  <line class="cls-1" x1="228.91" y1="398.24" x2="240.45" y2="392.94"></line>
  <line class="cls-1" x1="387.35" y1="45.87" x2="449.49" y2="10"></line>
  <line class="cls-1" x1="407.39" y1="6.52" x2="407.39" y2="11.15"></line>
  <path class="cls-1" d="m443.48,259.32c8.06,1.42,16.51-1.03,22.76-6.63,6.25-5.6,10.31-14.36,11.76-23.1,2.15-10.77.4-26.13-5.41-39.25-5.8-13.13-15.66-24.03-24.63-28.69-8.21-4.67-18.47-6.28-27.16-2.42"></path>
  <path class="cls-1" d="m60.48,368.28c-5.23,5.4-6.01,12.65-1.82,19.11"></path>
  <line class="cls-1" x1="240.37" y1="359.83" x2="242.21" y2="361.48"></line>
  <line class="cls-1" x1="394.33" y1="178.11" x2="392.55" y2="188.82"></line>
  <path class="cls-1" d="m306.59,422.16c11.31-13.3,18.5-31.96,19.23-44.83.43-5.31.09-10.7-1.29-15.42s-3.78-8.77-7.05-11.51c-3.27-2.74-7.39-4.17-11.78-4.28-4.39-.11-9.04,1.09-13.4,3.1-8.63,3.69-19.41,13.25-27.27,25.26-7.86,12.01-12.79,26.48-13.39,36.9-1.24,12.6,2.93,25.36,12.2,29.41"></path>
  <path class="cls-1" d="m323.62,260.98c8.52,4.95,21.36,13.24,32.97,21.44,11.61,8.2,21.98,16.3,27.1,20.99,4.23,3.78,6.91,6.86,6.48,7.86-.43,1-3.96-.06-9.61-2.9"></path>
  <line class="cls-1" x1="75.23" y1="150.21" x2="50.89" y2="143.55"></line>
  <line class="cls-1" x1="661.95" y1="107.2" x2="582.19" y2="138.81"></line>
  <line class="cls-1" x1="75.51" y1="292.42" x2="77.34" y2="294.06"></line>
  <line class="cls-1" x1="87.78" y1="441.24" x2="107.13" y2="438.73"></line>
  <line class="cls-1" x1="672.42" y1="272.6" x2="672.42" y2="294.14"></line>
  <path class="cls-1" d="m221.46,199.03c3.87,1.66,8.22,3.91,12.62,6.45,4.07,2.35,8.69,5.23,13.65,8.59"></path>
  <path class="cls-1" d="m249.76,215.46c10.25,7.02,21.88,16.18,31.46,24.79,9.58,8.6,17.12,16.64,21.31,22.27l1.63,2.26"></path>
  <line class="cls-1" x1="297.06" y1="275.37" x2="295.49" y2="274.79"></line>
  <line class="cls-1" x1="109.57" y1="223" x2="139.16" y2="186.96"></line>
  <line class="cls-1" x1="141.07" y1="184.64" x2="170.28" y2="149.06"></line>
  <line class="cls-1" x1="110.85" y1="223.35" x2="122.21" y2="209.51"></line>
  <line class="cls-1" x1="123.31" y1="208.17" x2="139.96" y2="187.9"></line>
  <line class="cls-1" x1="142.29" y1="185.06" x2="171.08" y2="149.99"></line>
  <line class="cls-1" x1="170.28" y1="149.06" x2="171.56" y2="149.41"></line>
  <line class="cls-1" x1="58.34" y1="371" x2="58.34" y2="360.32"></line>
  <line class="cls-1" x1="58.34" y1="348.68" x2="58.34" y2="208.98"></line>
  <line class="cls-1" x1="58.34" y1="208.98" x2="119.05" y2="135.04"></line>
  <line class="cls-1" x1="59.62" y1="209.33" x2="120.33" y2="135.39"></line>
  <line class="cls-1" x1="197.52" y1="135.45" x2="87.53" y2="299.36"></line>
  <path class="cls-1" d="m68.23,371.64c-6.61,11.08-10.34,23.16-11.16,32.54-.77,7.63.15,15.5,3.2,21.38,3.04,5.88,8.21,9.76,14.32,10.54"></path>
  <line class="cls-1" x1="185.5" y1="128.51" x2="75.51" y2="292.42"></line>
  <line class="cls-1" x1="422.32" y1="491.05" x2="671.24" y2="272.16"></line>
  <line class="cls-1" x1="423.5" y1="491.5" x2="672.42" y2="272.6"></line>
  <line class="cls-1" x1="423.5" y1="584.08" x2="423.5" y2="491.5"></line>
  <line class="cls-1" x1="371.87" y1="66.48" x2="373.83" y2="55.19"></line>
  <line class="cls-1" x1="373.83" y1="55.19" x2="218.2" y2="103.52"></line>
  <line class="cls-1" x1="151.48" y1="310.95" x2="271.48" y2="157.71"></line>
  <path class="cls-1" d="m239.52,107.58c-6.62-6.8-17.6-6.58-27.03-1.83-8.65,3.9-19.38,13.68-27.1,25.8-7.73,12.12-12.46,26.59-12.89,36.93-.09,1.47-.13,2.94-.1,4.4"></path>
  <path class="cls-1" d="m387.36,54.5c-4.27-1.12-8.99-.72-13.53.69-7.72,2.3-17.35,8.73-25.62,18.63"></path>
  <path class="cls-1" d="m408.72,67.33c-5.53-6.67-14.55-7.9-22.86-5.19-7.3,2.19-16.29,8.01-24.25,17.04"></path>
  <path class="cls-1" d="m80.44,378.28c-6.71,11.16-10.51,23.38-11.34,32.84-.75,7.46.11,15.16,3,21,2.89,5.83,7.82,9.8,13.74,10.8"></path>
  <path class="cls-1" d="m191.53,296.58c4.9-2.5,9.54-3.92,13.66-4.45,4.95-.65,9.96-.1,14.33,2.07,4.38,2.16,8.12,5.94,10.62,11.06,2.51,5.12,3.78,11.57,3.84,18.44s-1.13,14.14-3.05,20.95c-2.59,9.35-7.37,20.13-13.96,29.98-6.59,9.84-14.98,18.75-23.31,24.5"></path>
  <line class="cls-1" x1="505.25" y1="328.66" x2="575.15" y2="355.16"></line>
  <line class="cls-1" x1="600.03" y1="364.59" x2="600.03" y2="457.17"></line>
  <line class="cls-1" x1="458.58" y1="369.7" x2="528.48" y2="396.2"></line>
  <line class="cls-1" x1="553.36" y1="405.63" x2="553.36" y2="498.21"></line>
  <line class="cls-1" x1="411.9" y1="410.75" x2="481.81" y2="437.24"></line>
  <line class="cls-1" x1="506.69" y1="446.67" x2="506.69" y2="539.25"></line>
  <polyline class="cls-1" points="319.01 40.02 319.01 20.49 318.15 19.84"></polyline>
  <line class="cls-1" x1="195.64" y1="116.1" x2="134.45" y2="69.63"></line>
  <line class="cls-1" x1="474.12" y1="86.28" x2="317.39" y2="138.71"></line>
  <path class="cls-1" d="m273.52,181.13c5.44-10.52,13.09-20.6,21.12-28.1,8.04-7.5,16.46-12.41,23.54-14.57,7.33-2.35,15.16-2.35,21.42,1,6.26,3.35,10.96,10.06,12.82,18.7"></path>
  <line class="cls-1" x1="147.03" y1="317.08" x2="135.45" y2="301.69"></line>
  <line class="cls-1" x1="135.45" y1="301.69" x2="255.45" y2="148.46"></line>
  <path class="cls-1" d="m122.39,384.47c-.77-.78-1.49-1.6-2.14-2.48-2.76-3.65-4.9-8.64-5.89-14.89-1-6.24-.84-13.73.65-21.54,2.98-15.61,11.3-32.51,20.45-43.88,7.04-9.05,16.36-17.59,26.02-22.47"></path>
  <path class="cls-1" d="m263.86,225.77c-.53-9.25,1.53-20.54,5.53-31.26,4-10.72,9.95-20.87,16.12-28.7,4.53-5.8,9.95-11.41,15.84-15.95,5.89-4.54,12.24-8.01,18.28-9.79,6.04-1.77,11.75-1.85,16.51-.44s8.57,4.31,11.31,7.97c3.62,4.73,6.15,11.97,6.49,20.98.34,9.01-1.51,19.77-5.38,30.13"></path>
  <path class="cls-1" d="m320.43,240.54c-7.74,6.88-16.66,12-24.83,13.76"></path>
  <path class="cls-1" d="m155.14,404.12c-1.86-1.35-3.46-2.97-4.82-4.77-2.76-3.65-4.9-8.64-5.89-14.89-1-6.24-.84-13.73.65-21.54,2.98-15.61,11.3-32.51,20.45-43.88,7.04-9.05,16.36-17.59,26.02-22.47"></path>
  <line class="cls-1" x1="463.52" y1="21.57" x2="457.73" y2="37.72"></line>
  <line class="cls-1" x1="463.52" y1="41.97" x2="463.52" y2="21.57"></line>
  <line class="cls-1" x1="521.64" y1="26.2" x2="496.07" y2="35.4"></line>
  <line class="cls-1" x1="682" y1="118.78" x2="590.15" y2="155.17"></line>
  <path class="cls-1" d="m429.41,101.23c8.57-10.44,18.3-17.78,26.59-21.45,11.89-5.64,25.61-4.94,33.02,4.81"></path>
  <path class="cls-1" d="m573.58,134.74c-5.53-6.67-14.55-7.9-22.86-5.19-7.3,2.19-16.29,8.01-24.24,17.04"></path>
  <path class="cls-1" d="m177.5,288.48c4.9-2.5,9.54-3.92,13.66-4.45l1.94-.19"></path>
  <line class="cls-1" x1="160.64" y1="130.09" x2="198.28" y2="113.57"></line>
  <line class="cls-1" x1="228.36" y1="100.36" x2="273.48" y2="80.56"></line>
  <line class="cls-1" x1="161.5" y1="130.74" x2="196.24" y2="115.49"></line>
  <line class="cls-1" x1="236.38" y1="97.87" x2="274.33" y2="81.22"></line>
  <line class="cls-1" x1="79.82" y1="417.31" x2="86.78" y2="343.96"></line>
  <path class="cls-1" d="m109.32,266.89c-1.56.48-3.11,1.08-4.62,1.78-8.63,3.69-19.41,13.25-27.27,25.26s-12.79,26.48-13.39,36.9c-1.08,11.52,2.17,23.27,10.01,28.18"></path>
  <path class="cls-1" d="m151.03,281.8c-6.49-4.44-15.56-3.78-23.59,0-8.63,3.69-19.41,13.25-27.27,25.26-7.86,12.01-12.79,26.48-13.39,36.9-1.24,12.61,2.93,25.37,12.21,29.41"></path>
  <path class="cls-1" d="m268.49,132.24c-1.81-7.56-6.48-13.33-12.65-15.62-6.16-2.29-13.81-1.1-20.6,2.26-8.65,3.9-19.38,13.68-27.1,25.8-7.73,12.12-12.46,26.59-12.89,36.93-.98,12.13,3.09,24.29,12.01,28.39"></path>
  <path class="cls-1" d="m421.53,76.45c-5.14-9.03-15.49-11.29-24.96-8.13-9.78,2.77-22.83,12.89-31.94,27.16"></path>
  <path class="cls-1" d="m92.54,382.22c-7.53,11.7-11.86,25-12.73,35.09-1.08,10.37,1.09,21.07,7.19,26.88"></path>
  <line class="cls-1" x1="7.11" y1="356.98" x2="7.11" y2="194.96"></line>
  <line class="cls-1" x1="7.11" y1="194.96" x2="67.82" y2="121.02"></line>
  <line class="cls-1" x1="8.39" y1="195.31" x2="69.1" y2="121.37"></line>
  <line class="cls-1" x1="8.39" y1="195.31" x2="8.39" y2="357.33"></line>
  <line class="cls-1" x1="222.01" y1="41.48" x2="312.28" y2="1.86"></line>
  <line class="cls-1" x1="222.87" y1="42.13" x2="313.13" y2="2.51"></line>
  <line class="cls-1" x1="520.81" y1="314.98" x2="590.72" y2="341.48"></line>
  <line class="cls-1" x1="615.59" y1="350.91" x2="615.59" y2="443.49"></line>
  <line class="cls-1" x1="520.81" y1="334.56" x2="520.81" y2="314.98"></line>
  <line class="cls-1" x1="152.06" y1="171.24" x2="127.73" y2="164.58"></line>
  <line class="cls-1" x1="126.45" y1="164.23" x2="102.13" y2="157.58"></line>
  <line class="cls-1" x1="49.62" y1="143.2" x2="36.8" y2="139.7"></line>
  <line class="cls-1" x1="397.07" y1="483.43" x2="645.99" y2="264.54"></line>
  <line class="cls-1" x1="412.62" y1="562.33" x2="397.07" y2="576.01"></line>
  <line class="cls-1" x1="397.07" y1="576.01" x2="397.07" y2="483.43"></line>
  <line class="cls-1" x1="551.92" y1="287.62" x2="621.83" y2="314.12"></line>
  <line class="cls-1" x1="623.01" y1="314.57" x2="646.7" y2="323.55"></line>
  <line class="cls-1" x1="646.7" y1="323.55" x2="646.7" y2="416.13"></line>
  <line class="cls-1" x1="109.18" y1="91" x2="222.01" y2="41.48"></line>
  <line class="cls-1" x1="110.04" y1="91.65" x2="222.87" y2="42.13"></line>
  <line class="cls-1" x1="583.04" y1="260.26" x2="652.94" y2="286.76"></line>
  <line class="cls-1" x1="655.31" y1="287.65" x2="677.82" y2="296.19"></line>
  <line class="cls-1" x1="677.82" y1="296.19" x2="677.82" y2="388.77"></line>
  <line class="cls-1" x1="373.37" y1="474.45" x2="622.29" y2="255.56"></line>
  <line class="cls-1" x1="373.37" y1="567.03" x2="373.37" y2="474.45"></line>
  <line class="cls-1" x1="143.49" y1="117.06" x2="256.32" y2="67.54"></line>
  <line class="cls-1" x1="144.35" y1="117.71" x2="257.18" y2="68.19"></line>
  <line class="cls-1" x1="422.32" y1="583.63" x2="422.32" y2="491.05"></line>
  <line class="cls-1" x1="63.03" y1="128.76" x2="87.36" y2="135.42"></line>
  <line class="cls-1" x1="88.65" y1="135.78" x2="112.98" y2="142.43"></line>
  <line class="cls-1" x1="114.26" y1="142.78" x2="138.59" y2="149.44"></line>
  <line class="cls-1" x1="139.87" y1="149.79" x2="166.35" y2="157.04"></line>
  <path class="cls-1" d="m390.02,168.43c-2.21-11.71-7.23-23.82-13.74-33.56-6.51-9.74-14.49-17.1-21.93-21.32-4.6-2.66-9.65-4.6-14.82-5.39"></path>
  <path class="cls-1" d="m411.47,94.35c8.98-11.65,19.59-19.9,28.49-23.82,6.16-2.79,12.8-4.18,18.8-3.32,6,.86,11.34,3.98,14.98,9.13"></path>
  <line class="cls-1" x1="211.59" y1="47.08" x2="227.89" y2="59.46"></line>
  <line class="cls-1" x1="228.74" y1="60.11" x2="245.04" y2="72.49"></line>
  <line class="cls-1" x1="245.9" y1="73.15" x2="262.19" y2="85.52"></line>
  <line class="cls-1" x1="32.73" y1="363.99" x2="32.73" y2="201.97"></line>
  <line class="cls-1" x1="32.73" y1="201.97" x2="93.43" y2="128.03"></line>
  <line class="cls-1" x1="34.01" y1="202.32" x2="94.71" y2="128.38"></line>
  <line class="cls-1" x1="34.01" y1="202.32" x2="34.01" y2="364.34"></line>
  <line class="cls-1" x1="267.6" y1="62.58" x2="234.15" y2="37.18"></line>
  <line class="cls-1" x1="427.46" y1="397.07" x2="497.37" y2="423.56"></line>
  <line class="cls-1" x1="498.55" y1="424.01" x2="522.24" y2="432.99"></line>
  <line class="cls-1" x1="522.24" y1="432.99" x2="522.24" y2="525.57"></line>
  <line class="cls-1" x1="256.32" y1="67.54" x2="346.59" y2="27.92"></line>
  <line class="cls-1" x1="257.18" y1="68.19" x2="347.44" y2="28.57"></line>
  <line class="cls-1" x1="489.69" y1="342.34" x2="559.59" y2="368.84"></line>
  <line class="cls-1" x1="584.47" y1="378.27" x2="584.47" y2="470.85"></line>
  <line class="cls-1" x1="474.13" y1="356.02" x2="544.04" y2="382.52"></line>
  <line class="cls-1" x1="568.92" y1="391.95" x2="568.92" y2="484.53"></line>
  <path class="cls-1" d="m562.07,128.42c-5.47-7.18-14.8-8.62-23.37-5.82-7.71,2.3-17.35,8.73-25.61,18.62"></path>
  <path class="cls-1" d="m136.66,391.74l-.37-.48c-2.76-3.65-4.9-8.64-5.89-14.89-1-6.24-.84-13.73.65-21.54,2.98-15.61,11.3-32.51,20.45-43.88,7.04-9.05,16.36-17.59,26.02-22.47"></path>
  <path class="cls-1" d="m62.24,343.27c-6.27,5.89-6.91,14.23-1.41,21.31"></path>
  <path class="cls-1" d="m62.38,366.47c2.7,3.01,6.28,5.72,10.21,7.98,6.83,3.98,16.72,7.59,27.91,9.4"></path>
  <path class="cls-1" d="m143.34,191.33c-4.99-4.58-6.75-7.51-3.76-7.05,2.99.46,10.74,4.31,19.17,9.3,10.41,6.05,26.94,16.87,40.39,26.79"></path>
  <path class="cls-1" d="m404.38,174.99c-6.62-6.79-17.59-6.58-27.02-1.83-8.65,3.9-19.38,13.68-27.1,25.8-7.73,12.12-12.46,26.59-12.89,36.93-.09,1.47-.13,2.94-.1,4.4"></path>
  <path class="cls-1" d="m415.47,181.07c-6.68-5.94-17.08-5.46-26.07-.96-8.65,3.9-19.38,13.68-27.1,25.8-7.73,12.12-12.46,26.59-12.89,36.93l-.08,1.67"></path>
  <line class="cls-1" x1="724.09" y1="143.08" x2="643.91" y2="177.8"></line>
  <path class="cls-1" d="m259.48,173.04c5.44-10.52,13.09-20.61,21.13-28.1,8.04-7.5,16.46-12.41,23.55-14.58,9.19-2.98,19.09-2.16,25.85,4.14"></path>
  <line class="cls-1" x1="548.98" y1="139.6" x2="550.72" y2="129.55"></line>
  <line class="cls-1" x1="550.72" y1="129.55" x2="395.09" y2="177.88"></line>
  <path class="cls-1" d="m291.98,307.24c8.52,4.95,21.36,13.24,32.97,21.44,11.61,8.2,21.98,16.3,27.1,20.99,4.17,3.73,6.84,6.78,6.5,7.82-.34,1.04-3.7.09-9.18-2.64"></path>
  <path class="cls-1" d="m276.94,305.34c-5.17-4.7-7.16-7.8-4.24-7.41,2.92.39,10.74,4.26,19.28,9.31"></path>
  <line class="cls-1" x1="545.14" y1="229.55" x2="561.44" y2="135.74"></line>
  <line class="cls-1" x1="561.44" y1="135.74" x2="405.81" y2="184.06"></line>
  <line class="cls-1" x1="405.05" y1="184.3" x2="389.51" y2="277.88"></line>
  <line class="cls-1" x1="389.51" y1="277.88" x2="448.07" y2="259.7"></line>
  <line class="cls-1" x1="512.78" y1="239.6" x2="545.14" y2="229.55"></line>
  <path class="cls-1" d="m248.92,114.18c-6.35-.42-14.22,2.35-21.56,7.45-7.34,5.1-14.16,12.54-19.12,20.01-6.61,9.57-12.19,23.05-13.69,35.06-1.5,12,1.08,22.52,6.06,27.73"></path>
  <path class="cls-1" d="m249.85,211.36c.71-17.98,10.5-39.89,21.63-53.64,7.86-10.24,19.01-19.78,29.78-24.2s21.16-3.72,27.56,1.38"></path>
  <path class="cls-1" d="m226.17,101.05c-6.35-.41-14.22,2.35-21.56,7.46-7.34,5.1-14.16,12.54-19.11,20-8.73,12.54-15.39,31.6-14,45.73"></path>
  <path class="cls-1" d="m110.34,265.38c-12.18,1.94-26.49,14.14-34.83,27.04-5.06,7.46-9.63,17.03-12.07,26.59-2.44,9.56-2.75,19.12-.76,26.12"></path>
  <line class="cls-1" x1="57.07" y1="404.18" x2="64.04" y2="330.83"></line>
  <path class="cls-1" d="m127.28,215.26c-4.99-4.58-6.75-7.51-3.76-7.05,2.99.46,10.74,4.31,19.17,9.3,9.99,5.81,25.54,15.94,38.7,25.55"></path>
  <path class="cls-1" d="m403.06,175.4c-6.35-.41-14.22,2.35-21.56,7.46-7.34,5.1-14.15,12.54-19.11,20-8.18,11.83-14.67,29.36-14.13,43.22"></path>
  <line class="cls-1" x1="215.95" y1="397.93" x2="230.93" y2="344.65"></line>
  <line class="cls-1" x1="230.93" y1="344.65" x2="146.84" y2="355.54"></line>
  <line class="cls-1" x1="146.84" y1="355.54" x2="117.85" y2="458.6"></line>
  <line class="cls-1" x1="117.85" y1="458.6" x2="201.94" y2="447.7"></line>
  <line class="cls-1" x1="127.78" y1="200.82" x2="103.46" y2="194.16"></line>
  <line class="cls-1" x1="50.94" y1="179.79" x2="26.6" y2="173.13"></line>
  <line class="cls-1" x1="25.33" y1="172.78" x2="12.52" y2="169.27"></line>
  <line class="cls-1" x1="182.41" y1="133.1" x2="155.63" y2="112.76"></line>
  <line class="cls-1" x1="137.62" y1="99.08" x2="121.33" y2="86.7"></line>
  <path class="cls-1" d="m243.45,163.77c5.44-10.52,13.09-20.6,21.12-28.1,8.04-7.5,16.46-12.41,23.54-14.57,9.84-3.21,20.47-1.98,27.23,5.5"></path>
  <line class="cls-1" x1="90.04" y1="208.6" x2="65.7" y2="201.94"></line>
  <line class="cls-1" x1="64.41" y1="201.59" x2="40.08" y2="194.93"></line>
  <line class="cls-1" x1="13.18" y1="187.57" x2=".38" y2="184.06"></line>
  <line class="cls-1" x1="443.02" y1="383.38" x2="512.92" y2="409.88"></line>
  <line class="cls-1" x1="514.11" y1="410.33" x2="537.8" y2="419.31"></line>
  <line class="cls-1" x1="537.8" y1="419.31" x2="537.8" y2="511.89"></line>
  <line class="cls-1" x1="380.79" y1="438.11" x2="450.69" y2="464.6"></line>
  <line class="cls-1" x1="475.57" y1="474.04" x2="475.57" y2="566.61"></line>
  <line class="cls-1" x1="239.17" y1="54.51" x2="329.43" y2="14.89"></line>
  <line class="cls-1" x1="240.02" y1="55.16" x2="330.29" y2="15.54"></line>
  <line class="cls-1" x1="138.27" y1="185.58" x2="115.59" y2="179.37"></line>
  <line class="cls-1" x1="114.32" y1="179.02" x2="89.98" y2="172.36"></line>
  <line class="cls-1" x1="63.08" y1="165" x2="38.75" y2="158.34"></line>
  <line class="cls-1" x1="37.46" y1="157.99" x2="24.66" y2="154.49"></line>
  <path class="cls-1" d="m447.39,150.96c-2.67-16.53-11.18-34-21.64-45.02"></path>
  <path class="cls-1" d="m423.18,103.32c-3.84-3.73-7.79-6.69-11.63-8.9-5.69-3.3-12.09-5.48-18.53-5.72"></path>
  <line class="cls-1" x1="83.96" y1="215.99" x2="144.66" y2="142.05"></line>
  <line class="cls-1" x1="85.24" y1="216.34" x2="145.94" y2="142.4"></line>
  <line class="cls-1" x1="367.35" y1="57.21" x2="336.16" y2="33.52"></line>
  <line class="cls-1" x1="335.31" y1="32.87" x2="319.01" y2="20.49"></line>
  <line class="cls-1" x1="318.15" y1="19.84" x2="301.85" y2="7.46"></line>
  <line class="cls-1" x1="240.98" y1="96.45" x2="223.34" y2="83.05"></line>
  <line class="cls-1" x1="307.33" y1="65.71" x2="247.28" y2="20.11"></line>
  <line class="cls-1" x1="329.9" y1="55.81" x2="296.44" y2="30.4"></line>
  <line class="cls-1" x1="536.36" y1="301.3" x2="606.27" y2="327.8"></line>
  <line class="cls-1" x1="631.15" y1="337.23" x2="631.15" y2="429.81"></line>
  <line class="cls-1" x1="126.33" y1="104.03" x2="239.17" y2="54.51"></line>
  <line class="cls-1" x1="127.19" y1="104.68" x2="240.02" y2="55.16"></line>
  <path class="cls-1" d="m100.98,394.32c-9.9,2.83-12.55,10.11-5.13,18.23"></path>
  <path class="cls-1" d="m98.95,415.67c3.34,3.02,7.6,5.96,12.24,8.63,4.05,2.34,8.87,4.75,14.32,7.08"></path>
  <path class="cls-1" d="m129.11,432.87c11.41,4.6,25.39,8.51,37.98,10.62,12.58,2.11,23.76,2.43,31.25,1.41,7.48-.92,13.57-3.4,15.68-7.27,2.11-3.87.25-9.13-5.19-14.36"></path>
  <line class="cls-1" x1="567.48" y1="273.94" x2="637.38" y2="300.44"></line>
  <line class="cls-1" x1="662.26" y1="309.87" x2="662.26" y2="402.45"></line>
  <path class="cls-1" d="m227.1,410.69c-4.75,4.51-6.3,10.48-4.24,16.17,2.07,5.7,7.75,11.12,14.59,15,8.47,5.12,22.84,9.45,37.19,10.49,14.35,1.04,28.68-1.21,37.08-5.11,6.71-2.86,12.27-7.38,14.32-12.7,2.04-5.32.56-11.44-4.07-16.62"></path>
  <line class="cls-1" x1="233.97" y1="478.53" x2="240.93" y2="405.18"></line>
  <line class="cls-1" x1="396.35" y1="424.43" x2="466.25" y2="450.92"></line>
  <line class="cls-1" x1="491.13" y1="460.36" x2="491.13" y2="552.93"></line>
  <line class="cls-1" x1="365.23" y1="451.79" x2="435.13" y2="478.29"></line>
  <line class="cls-1" x1="460.01" y1="487.72" x2="460.01" y2="580.3"></line>
  <line class="cls-1" x1="273.48" y1="80.56" x2="363.74" y2="40.95"></line>
  <line class="cls-1" x1="274.33" y1="81.22" x2="364.6" y2="41.6"></line>
  <line class="cls-1" x1="350.36" y1="195.92" x2="240.37" y2="359.83"></line>
  <line class="cls-1" x1="362.39" y1="202.86" x2="252.4" y2="366.77"></line>
  <line class="cls-1" x1="212.26" y1="381.14" x2="165.52" y2="319.05"></line>
  <line class="cls-1" x1="165.52" y1="319.05" x2="285.51" y2="165.81"></line>
  <line class="cls-1" x1="285.51" y1="165.81" x2="332.31" y2="222.82"></line>
  <line class="cls-1" x1="309.14" y1="257.36" x2="303.77" y2="264.21"></line>
  <line class="cls-1" x1="273.91" y1="302.37" x2="261.47" y2="318.26"></line>
  <line class="cls-1" x1="253.19" y1="328.84" x2="212.29" y2="381.1"></line>
  <path class="cls-1" d="m275.21,332.79c-12.18,1.94-26.5,14.14-34.84,27.04-5.06,7.46-9.63,17.03-12.07,26.59-2.44,9.56-2.75,19.12-.76,26.12"></path>
  <line class="cls-1" x1="383.81" y1="303.52" x2="404.05" y2="273.36"></line>
  <line class="cls-1" x1="373.11" y1="209.05" x2="263.12" y2="372.96"></line>
  <path class="cls-1" d="m245.3,445.7c-6.71,11.16-10.51,23.38-11.34,32.84-.75,7.46.11,15.16,3,20.99,2.89,5.83,7.82,9.8,13.73,10.8"></path>
  <path class="cls-1" d="m283.85,342.07l-2.26.96c-8.63,3.69-19.41,13.25-27.27,25.26-7.86,12.01-12.79,26.48-13.39,36.9-.99,10.84,1.76,21.92,8.72,27.24"></path>
  <path class="cls-1" d="m309.09,346.47c-6.22-2.25-15.03-.68-23.56,4.36-8.52,5.04-16.76,13.56-22.41,22.13-5.06,7.46-9.63,17.03-12.07,26.59-2.44,9.56-2.75,19.11-.76,26.11"></path>
  <line class="cls-1" x1="639.75" y1="301.33" x2="662.26" y2="309.87"></line>
  <path class="cls-1" d="m277.49,252.37c-2.88-1.56-5.28-3.73-7.18-6.26-1.86-2.47-3.45-5.55-4.59-9.22"></path>
</svg>
